<?xml version="1.0" standalone="no"?>
<!DOCTYPE svg PUBLIC "-//W3C//DTD SVG 20010904//EN"
 "http://www.w3.org/TR/2001/REC-SVG-20010904/DTD/svg10.dtd">
<svg version="1.0" xmlns="http://www.w3.org/2000/svg"
 width="512.000000pt" height="512.000000pt" viewBox="0 0 512.000000 512.000000"
 preserveAspectRatio="xMidYMid meet">
    <g transform="translate(0.000000,512.000000) scale(0.100000,-0.100000)"
    fill="#000000" stroke="none">
        <path d="M2380 5109 c-663 -64 -1260 -524 -1490 -1149 -60 -163 -105 -377
        -112 -540 l-3 -55 -80 -6 c-132 -10 -230 -75 -284 -189 l-26 -55 0 -1435 0
        -1435 23 -46 c36 -74 87 -125 160 -161 l67 -33 1925 0 1925 0 67 33 c73 36
        124 87 160 161 l23 46 0 1435 0 1435 -26 55 c-54 114 -152 179 -284 189 l-80
        6 -3 55 c-11 233 -80 498 -187 709 -334 665 -1033 1052 -1775 980z m355 -713
        c345 -63 632 -275 788 -583 57 -111 107 -301 107 -404 l0 -49 -1070 0 -1070 0
        0 54 c0 100 50 288 107 399 133 263 381 471 658 553 151 44 335 56 480 30z
        m20 -1635 c295 -99 475 -423 400 -716 -36 -138 -107 -250 -217 -340 l-58 -47
        0 -429 c0 -490 -1 -497 -82 -576 -75 -72 -117 -88 -238 -88 -121 0 -163 16
        -238 88 -81 79 -82 86 -82 576 l0 429 -57 47 c-150 122 -233 293 -233 477 0
        105 15 168 61 265 134 280 450 413 744 314z"/>
    </g>
</svg>
