<?xml version="1.0" standalone="no"?>
<!DOCTYPE svg PUBLIC "-//W3C//DTD SVG 20010904//EN"
 "http://www.w3.org/TR/2001/REC-SVG-20010904/DTD/svg10.dtd">
<svg version="1.0" xmlns="http://www.w3.org/2000/svg"
 width="512.000000pt" height="512.000000pt" viewBox="0 0 512.000000 512.000000"
 preserveAspectRatio="xMidYMid meet">
    <g transform="translate(0.000000,512.000000) scale(0.100000,-0.100000)"
    fill="#000000" stroke="none">
        <path d="M2390 5114 c-227 -19 -424 -53 -589 -103 -549 -165 -1035 -530 -1366
        -1026 -145 -217 -277 -510 -350 -780 -31 -115 -28 -152 16 -189 l31 -26 368 0
        c368 0 369 0 394 23 14 12 52 87 90 174 88 205 124 274 191 368 125 173 265
        308 441 425 319 211 685 308 1060 280 255 -19 408 -59 619 -160 153 -74 271
        -153 420 -282 5 -5 -93 -111 -242 -261 -260 -261 -273 -278 -273 -357 0 -78
        53 -159 125 -191 38 -17 87 -19 835 -19 748 0 797 2 835 19 51 23 101 79 114
        128 7 25 11 304 11 818 0 878 4 823 -77 896 -66 59 -157 69 -238 26 -16 -9
        -129 -115 -250 -236 -121 -122 -223 -221 -228 -221 -4 0 -52 38 -107 84 -379
        319 -815 515 -1310 591 -100 15 -425 27 -520 19z"/>
        <path d="M125 2111 c-51 -23 -101 -79 -114 -128 -7 -25 -11 -304 -11 -816 0
        -864 -4 -816 68 -890 64 -66 157 -80 242 -36 19 10 134 117 255 238 121 122
        225 221 231 221 6 0 21 -12 35 -26 77 -83 345 -276 509 -366 222 -122 527
        -228 790 -273 366 -62 797 -36 1165 71 541 158 1053 545 1375 1039 137 210
        265 501 340 772 29 104 30 114 16 146 -28 68 -21 67 -418 67 -356 0 -357 0
        -382 -22 -14 -13 -52 -88 -90 -175 -88 -205 -124 -274 -191 -368 -81 -113
        -157 -196 -255 -283 -451 -398 -1074 -528 -1645 -345 -202 64 -409 179 -575
        317 l-71 59 250 251 c258 260 271 277 271 356 0 78 -53 159 -125 191 -38 17
        -87 19 -835 19 -748 0 -797 -2 -835 -19z"/>
    </g>
</svg>
